{"title":"Shirin Farhad Ki Toh Nikal Padi [2012] 720p DVDRip 6Ch Kartik [","uid":7687751,"size":958294773,"categoryP":"video","categoryS":"hd___movies","magnet":"?xt=urn:btih:c20aacbcfe161fc59c3a9e3cb246114367ffd016&amp;dn=+Shirin+Farhad+Ki+Toh+Nikal+Padi+%5B2012%5D+720p+DVDRip+6Ch+Kartik+%5B&amp;tr=udp%3A%2F%2Ftracker.openbittorrent.com%3A80&amp;tr=udp%3A%2F%2Fopen.demonii.com%3A1337&amp;tr=udp%3A%2F%2Ftracker.coppersurfer.tk%3A6969&amp;tr=udp%3A%2F%2Fexodus.desync.com%3A6969","seeders":0,"leechers":1,"uploader":"JagGuSTAR","files":-1,"time":1349010177,"description":"Rip Information\n\nFormat : Matroska\nFormat version : Version 2\nFile size : 897 MiB\nDuration : 1h 51mn\nOverall bit rate : 1 122 Kbps\nMovie name : Shirin Farhad Ki Toh Nikal Padi (2012).720p.DVDRip.6Ch.By K@rtik [EXD ExclusivE]\n\nVideo\n\nCodec ID : V_MPEG4/ISO/AVC\nDuration : 1h 51mn\nBit rate : 897 Kbps\nWidth : 1 280 pixels\nHeight : 544 pixels\nDisplay aspect ratio : 2.35:1\nFrame rate : 23.976 fps\nColor space : YUV\nChroma subsampling : 4:2:0\nBit depth : 8 bits\nScan type : Progressive\nBits/(Pixel*Frame) : 0.054\nStream size : 700 MiB (78%)\nTitle : K@rtik\nWriting library : x264 core 125 r2200 999b753\n\n\n\nAudio 1\n\nCodec ID : A_AC3\nDuration : 1h 51mn\nBit rate mode : Constant\nBit rate : 224 Kbps\nChannel(s) : 6 channels\nChannel positions : Front: L C R, Side: L R, LFE\nSampling rate : 48.0 KHz\nBit depth : 16 bits\nCompression mode : Lossy\nStream size : 179 MiB (20%)\nTitle : K@rtik\nLanguage : Hindi\n\nScreens:  &lt;a href=&quot;\nhttp://desisnap.com/image.php?id=1295_5066F6B7&amp;jpg&quot; rel=&quot;nofollow&quot; target=&quot;_NEW&quot;&gt;\nhttp://desisnap.com/image.php?id=1295_5066F6B7&amp;jpg&lt;/a&gt; &lt;a href=&quot;\nhttp://desisnap.com/image.php?id=B316_5066F6B7&amp;jpg&quot; rel=&quot;nofollow&quot; target=&quot;_NEW&quot;&gt;\nhttp://desisnap.com/image.php?id=B316_5066F6B7&amp;jpg&lt;/a&gt; &lt;a href=&quot;\nhttp://desisnap.com/image.php?id=9CCB_5066F6B7&amp;jpg&quot; rel=&quot;nofollow&quot; target=&quot;_NEW&quot;&gt;\nhttp://desisnap.com/image.php?id=9CCB_5066F6B7&amp;jpg&lt;/a&gt; &lt;a href=&quot;\nhttp://desisnap.com/image.php?id=65E9_5066F6B7&amp;jpg&quot; rel=&quot;nofollow&quot; target=&quot;_NEW&quot;&gt;\nhttp://desisnap.com/image.php?id=65E9_5066F6B7&amp;jpg&lt;/a&gt; &lt;a href=&quot;\nhttp://desisnap.com/image.php?id=5C25_5066F6B7&amp;jpg&quot; rel=&quot;nofollow&quot; target=&quot;_NEW&quot;&gt;\nhttp://desisnap.com/image.php?id=5C25_5066F6B7&amp;jpg&lt;/a&gt; &lt;a href=&quot;\nhttp://desisnap.com/image.php?id=7C37_5066F7AF&amp;jpg&quot; rel=&quot;nofollow&quot; target=&quot;_NEW&quot;&gt;\nhttp://desisnap.com/image.php?id=7C37_5066F7AF&amp;jpg&lt;/a&gt; &lt;a href=&quot;\nhttp://desisnap.com/image.php?id=75BF_5066F7AF&amp;jpg&quot; rel=&quot;nofollow&quot; target=&quot;_NEW&quot;&gt;\nhttp://desisnap.com/image.php?id=75BF_5066F7AF&amp;jpg&lt;/a&gt; &lt;a href=&quot;\nhttp://desisnap.com/image.php?id=BD5E_5066F7AF&amp;jpg&quot; rel=&quot;nofollow&quot; target=&quot;_NEW&quot;&gt;\nhttp://desisnap.com/image.php?id=BD5E_5066F7AF&amp;jpg&lt;/a&gt; &lt;a href=&quot;\nhttp://desisnap.com/image.php?id=D8AE_5066F7AF&amp;jpg&quot; rel=&quot;nofollow&quot; target=&quot;_NEW&quot;&gt;\nhttp://desisnap.com/image.php?id=D8AE_5066F7AF&amp;jpg&lt;/a&gt; &lt;a href=&quot;\nhttp://desisnap.com/image.php?id=4929_5066F7AF&amp;jpg&quot; rel=&quot;nofollow&quot; target=&quot;_NEW&quot;&gt;\nhttp://desisnap.com/image.php?id=4929_5066F7AF&amp;jpg&lt;/a&gt;\n\nFull Credits to Kartik [Team EXD ]","torrent":{"xt":"urn:btih:c20aacbcfe161fc59c3a9e3cb246114367ffd016","amp;dn":"+Shirin+Farhad+Ki+Toh+Nikal+Padi+%5B2012%5D+720p+DVDRip+6Ch+Kartik+%5B","amp;tr":["udp%3A%2F%2Ftracker.openbittorrent.com%3A80","udp%3A%2F%2Fopen.demonii.com%3A1337","udp%3A%2F%2Ftracker.coppersurfer.tk%3A6969","udp%3A%2F%2Fexodus.desync.com%3A6969"],"infoHash":"c20aacbcfe161fc59c3a9e3cb246114367ffd016","infoHashBuffer":{"type":"Buffer","data":[194,10,172,188,254,22,31,197,156,58,158,60,178,70,17,67,103,255,208,22]},"announce":[],"urlList":[]}}